<mxfile host="app.diagrams.net" modified="2022-09-22T18:19:18.629Z" agent="5.0 (Windows NT 10.0; Win64; x64) AppleWebKit/537.36 (KHTML, like Gecko) Chrome/105.0.0.0 Safari/537.36" etag="rV2VtTYRL4fNvG6HzlWD" version="20.3.6" type="github">
  <diagram id="Fx_pesH9_Tg9TUCY-EvB" name="Page-1">
    <mxGraphModel dx="1422" dy="762" grid="1" gridSize="10" guides="1" tooltips="1" connect="1" arrows="1" fold="1" page="1" pageScale="1" pageWidth="850" pageHeight="1100" background="#FFFFFF" math="0" shadow="0">
      <root>
        <mxCell id="0" />
        <mxCell id="1" parent="0" />
        <mxCell id="1i6OF8YntkB4vm1dQ0iG-9" value="" style="edgeStyle=orthogonalEdgeStyle;rounded=0;orthogonalLoop=1;jettySize=auto;html=1;" parent="1" source="1i6OF8YntkB4vm1dQ0iG-6" target="1i6OF8YntkB4vm1dQ0iG-8" edge="1">
          <mxGeometry relative="1" as="geometry" />
        </mxCell>
        <mxCell id="1i6OF8YntkB4vm1dQ0iG-6" value="" style="rounded=0;whiteSpace=wrap;html=1;" parent="1" vertex="1">
          <mxGeometry x="510" y="215" width="120" height="60" as="geometry" />
        </mxCell>
        <mxCell id="1i6OF8YntkB4vm1dQ0iG-2" value="&lt;h1&gt;DropBox&lt;/h1&gt;&lt;p&gt;1. Upload files&lt;/p&gt;&lt;p&gt;2. Retrieve files.&lt;/p&gt;&lt;p&gt;3. Persist files forever&lt;/p&gt;&lt;p&gt;If we have time&lt;/p&gt;&lt;p&gt;4. Shareable links&lt;/p&gt;&lt;p&gt;DAU: 1 million reads per day&lt;/p&gt;&lt;p&gt;Read to write: 10:1&lt;/p&gt;&lt;p&gt;Average file size: 15 MB&lt;/p&gt;&lt;p&gt;5 year storage requirements: 3&lt;span style=&quot;background-color: initial;&quot;&gt;&amp;nbsp;PB&lt;/span&gt;&lt;/p&gt;&lt;p&gt;&lt;span style=&quot;background-color: initial;&quot;&gt;QPS: 10&lt;/span&gt;&lt;/p&gt;&lt;p&gt;&lt;span style=&quot;background-color: initial;&quot;&gt;-----------&lt;/span&gt;&lt;/p&gt;&lt;p&gt;&lt;b&gt;APIs&lt;/b&gt;&lt;/p&gt;&lt;p&gt;&lt;i style=&quot;&quot;&gt;UploadFile(s)&lt;/i&gt;&lt;/p&gt;&lt;p&gt;&lt;span style=&quot;&quot;&gt;&lt;/span&gt;Type: POST&lt;br&gt;&lt;/p&gt;&lt;p&gt;&lt;span style=&quot;&quot;&gt; &lt;/span&gt;Inputs:&lt;br&gt;&lt;/p&gt;&lt;p&gt;&lt;/p&gt;&lt;span style=&quot;white-space: pre;&quot;&gt; &lt;/span&gt;auth_token&lt;p&gt;&lt;span style=&quot;&quot;&gt; &lt;/span&gt;&lt;span style=&quot;&quot;&gt; &lt;/span&gt;&lt;span style=&quot;white-space: pre;&quot;&gt; &lt;/span&gt;File Data&lt;br&gt;&lt;/p&gt;&lt;p&gt;&lt;span style=&quot;white-space: pre;&quot;&gt; &lt;/span&gt;File Name&lt;br&gt;&lt;/p&gt;&lt;p&gt;&lt;span style=&quot;white-space: pre;&quot;&gt; &lt;/span&gt;Privacy Setting: Private, Shareable, Public&lt;br&gt;&lt;/p&gt;&lt;p&gt;Output:&lt;/p&gt;&lt;p&gt;&lt;span style=&quot;white-space: pre;&quot;&gt; &lt;/span&gt;Blob Key&lt;br&gt;&lt;/p&gt;&lt;p&gt;&lt;span style=&quot;white-space: pre;&quot;&gt; &lt;/span&gt;Success or Failure&lt;br&gt;&lt;/p&gt;&lt;p&gt;&lt;i&gt;GetFile&lt;/i&gt;&lt;/p&gt;&lt;p&gt;Type: GET&lt;/p&gt;&lt;p&gt;Inputs:&lt;/p&gt;&lt;p&gt;&lt;span style=&quot;white-space: pre;&quot;&gt; &lt;/span&gt;auth_token&lt;br&gt;&lt;/p&gt;&lt;p&gt;&lt;span style=&quot;white-space: pre;&quot;&gt; &lt;/span&gt;File Name (blob key)&lt;br&gt;&lt;/p&gt;&lt;p&gt;Output:&lt;/p&gt;&lt;p&gt;&lt;span style=&quot;white-space: pre;&quot;&gt; &lt;/span&gt;File Stream&lt;br&gt;&lt;/p&gt;&lt;p&gt;&lt;i&gt;GetListOfFiles&lt;/i&gt;&lt;/p&gt;&lt;p&gt;Type: GET&lt;/p&gt;&lt;p&gt;Inputs:&lt;/p&gt;&lt;p&gt;&lt;span style=&quot;white-space: pre;&quot;&gt; &lt;/span&gt;auth_token&lt;br&gt;&lt;/p&gt;&lt;p&gt;Returns:&lt;/p&gt;&lt;p&gt;&lt;span style=&quot;white-space: pre;&quot;&gt; &lt;/span&gt;List of files JSON&lt;/p&gt;&lt;p&gt;&lt;span style=&quot;background-color: initial;&quot;&gt;&lt;span style=&quot;white-space: pre;&quot;&gt; &lt;/span&gt;Each file node contains displayable name and blob address (key)&lt;/span&gt;&lt;/p&gt;" style="text;html=1;strokeColor=none;fillColor=none;spacing=4;spacingTop=-20;whiteSpace=wrap;overflow=hidden;rounded=0;horizontal=1;verticalAlign=middle;direction=west;" parent="1" vertex="1">
          <mxGeometry x="20" y="20" width="270" height="1070" as="geometry" />
        </mxCell>
        <mxCell id="1i6OF8YntkB4vm1dQ0iG-4" value="" style="html=1;verticalLabelPosition=bottom;align=center;labelBackgroundColor=#ffffff;verticalAlign=top;strokeWidth=2;strokeColor=#0080F0;shadow=0;dashed=0;shape=mxgraph.ios7.icons.smartphone;" parent="1" vertex="1">
          <mxGeometry x="535" y="230" width="18" height="30" as="geometry" />
        </mxCell>
        <mxCell id="1i6OF8YntkB4vm1dQ0iG-5" value="" style="verticalLabelPosition=bottom;html=1;verticalAlign=top;align=center;strokeColor=none;fillColor=#00BEF2;shape=mxgraph.azure.laptop;pointerEvents=1;" parent="1" vertex="1">
          <mxGeometry x="565" y="230" width="50" height="30" as="geometry" />
        </mxCell>
        <mxCell id="1i6OF8YntkB4vm1dQ0iG-11" value="" style="edgeStyle=orthogonalEdgeStyle;rounded=0;orthogonalLoop=1;jettySize=auto;html=1;" parent="1" source="1i6OF8YntkB4vm1dQ0iG-8" target="1i6OF8YntkB4vm1dQ0iG-10" edge="1">
          <mxGeometry relative="1" as="geometry" />
        </mxCell>
        <mxCell id="1i6OF8YntkB4vm1dQ0iG-8" value="" style="sketch=0;aspect=fixed;pointerEvents=1;shadow=0;dashed=0;html=1;strokeColor=none;labelPosition=center;verticalLabelPosition=bottom;verticalAlign=top;align=center;fillColor=#00188D;shape=mxgraph.azure.load_balancer_generic" parent="1" vertex="1">
          <mxGeometry x="552" y="307" width="37" height="50" as="geometry" />
        </mxCell>
        <mxCell id="1i6OF8YntkB4vm1dQ0iG-26" value="" style="edgeStyle=orthogonalEdgeStyle;rounded=0;orthogonalLoop=1;jettySize=auto;html=1;" parent="1" source="1i6OF8YntkB4vm1dQ0iG-10" target="1i6OF8YntkB4vm1dQ0iG-25" edge="1">
          <mxGeometry relative="1" as="geometry" />
        </mxCell>
        <mxCell id="1i6OF8YntkB4vm1dQ0iG-29" value="" style="edgeStyle=orthogonalEdgeStyle;rounded=0;orthogonalLoop=1;jettySize=auto;html=1;" parent="1" source="1i6OF8YntkB4vm1dQ0iG-10" target="1i6OF8YntkB4vm1dQ0iG-28" edge="1">
          <mxGeometry relative="1" as="geometry" />
        </mxCell>
        <mxCell id="1i6OF8YntkB4vm1dQ0iG-31" value="" style="edgeStyle=orthogonalEdgeStyle;rounded=0;orthogonalLoop=1;jettySize=auto;html=1;" parent="1" source="1i6OF8YntkB4vm1dQ0iG-10" target="1i6OF8YntkB4vm1dQ0iG-30" edge="1">
          <mxGeometry relative="1" as="geometry" />
        </mxCell>
        <mxCell id="1i6OF8YntkB4vm1dQ0iG-10" value="" style="sketch=0;pointerEvents=1;shadow=0;dashed=0;html=1;strokeColor=none;labelPosition=center;verticalLabelPosition=bottom;verticalAlign=top;outlineConnect=0;align=center;shape=mxgraph.office.servers.physical_host_farm;fillColor=#2072B8;" parent="1" vertex="1">
          <mxGeometry x="542" y="390" width="56" height="49" as="geometry" />
        </mxCell>
        <mxCell id="GZ5hargXJhRWxqv7RDIR-14" style="edgeStyle=orthogonalEdgeStyle;rounded=0;orthogonalLoop=1;jettySize=auto;html=1;exitX=0;exitY=0.5;exitDx=0;exitDy=0;" edge="1" parent="1" source="1i6OF8YntkB4vm1dQ0iG-25" target="GZ5hargXJhRWxqv7RDIR-11">
          <mxGeometry relative="1" as="geometry" />
        </mxCell>
        <mxCell id="GZ5hargXJhRWxqv7RDIR-25" style="edgeStyle=orthogonalEdgeStyle;rounded=0;orthogonalLoop=1;jettySize=auto;html=1;exitX=0.75;exitY=1;exitDx=0;exitDy=0;" edge="1" parent="1" source="1i6OF8YntkB4vm1dQ0iG-25" target="GZ5hargXJhRWxqv7RDIR-18">
          <mxGeometry relative="1" as="geometry">
            <Array as="points">
              <mxPoint x="430" y="760" />
            </Array>
          </mxGeometry>
        </mxCell>
        <mxCell id="1i6OF8YntkB4vm1dQ0iG-25" value="Upload File" style="whiteSpace=wrap;html=1;verticalAlign=top;fillColor=#2072B8;strokeColor=none;sketch=0;shadow=0;dashed=0;" parent="1" vertex="1">
          <mxGeometry x="340" y="520" width="120" height="40" as="geometry" />
        </mxCell>
        <mxCell id="1i6OF8YntkB4vm1dQ0iG-28" value="Get File" style="whiteSpace=wrap;html=1;verticalAlign=top;fillColor=#2072B8;strokeColor=none;sketch=0;shadow=0;dashed=0;" parent="1" vertex="1">
          <mxGeometry x="510" y="520.5" width="120" height="39.5" as="geometry" />
        </mxCell>
        <mxCell id="1i6OF8YntkB4vm1dQ0iG-30" value="Get List of Files" style="whiteSpace=wrap;html=1;verticalAlign=top;fillColor=#2072B8;strokeColor=none;sketch=0;shadow=0;dashed=0;" parent="1" vertex="1">
          <mxGeometry x="690" y="519.5" width="120" height="40.5" as="geometry" />
        </mxCell>
        <mxCell id="j9JHQL7Bqv3rGWA5NjJD-3" value="&lt;b&gt;&lt;u&gt;User &lt;/u&gt;&lt;/b&gt;&lt;br&gt;ID: UUID&lt;br&gt;auth_token&lt;br&gt;expires?&lt;br&gt;&lt;br&gt;&lt;b&gt;File&lt;br&gt;&lt;/b&gt;ID:&lt;br&gt;blob-server:&lt;br&gt;blob-key&lt;br&gt;Displayable File Name:&lt;br&gt;Access Level:&amp;nbsp; Private, Shareable, Public&lt;br&gt;Created:&amp;nbsp;&lt;br&gt;Last Modified:&lt;br&gt;extension, modified timestamps etc.&lt;br&gt;&amp;lt;other metadata&amp;gt;&lt;br&gt;&lt;br&gt;&lt;b&gt;UserFiles&lt;/b&gt;&lt;br&gt;UserID&lt;br&gt;FileID&lt;br&gt;" style="text;html=1;strokeColor=none;fillColor=none;align=left;verticalAlign=top;whiteSpace=wrap;rounded=0;" parent="1" vertex="1">
          <mxGeometry x="210" y="10" width="230" height="320" as="geometry" />
        </mxCell>
        <mxCell id="GZ5hargXJhRWxqv7RDIR-17" style="edgeStyle=orthogonalEdgeStyle;rounded=0;orthogonalLoop=1;jettySize=auto;html=1;exitX=1;exitY=0;exitDx=0;exitDy=0;entryX=0.72;entryY=0.867;entryDx=0;entryDy=0;entryPerimeter=0;" edge="1" parent="1" source="GZ5hargXJhRWxqv7RDIR-4" target="GZ5hargXJhRWxqv7RDIR-6">
          <mxGeometry relative="1" as="geometry" />
        </mxCell>
        <mxCell id="GZ5hargXJhRWxqv7RDIR-4" value="" style="aspect=fixed;perimeter=ellipsePerimeter;html=1;align=center;shadow=0;dashed=0;fontColor=#4277BB;labelBackgroundColor=#ffffff;fontSize=12;spacingTop=3;image;image=img/lib/ibm/vpc/ObjectStorage.svg;" vertex="1" parent="1">
          <mxGeometry x="270" y="690" width="60" height="60" as="geometry" />
        </mxCell>
        <mxCell id="GZ5hargXJhRWxqv7RDIR-8" value="" style="edgeStyle=orthogonalEdgeStyle;rounded=0;orthogonalLoop=1;jettySize=auto;html=1;" edge="1" parent="1" source="GZ5hargXJhRWxqv7RDIR-6" target="GZ5hargXJhRWxqv7RDIR-4">
          <mxGeometry relative="1" as="geometry" />
        </mxCell>
        <mxCell id="GZ5hargXJhRWxqv7RDIR-22" style="edgeStyle=orthogonalEdgeStyle;rounded=0;orthogonalLoop=1;jettySize=auto;html=1;exitX=1;exitY=0.51;exitDx=0;exitDy=0;exitPerimeter=0;entryX=0.25;entryY=1;entryDx=0;entryDy=0;" edge="1" parent="1" source="GZ5hargXJhRWxqv7RDIR-6" target="1i6OF8YntkB4vm1dQ0iG-25">
          <mxGeometry relative="1" as="geometry" />
        </mxCell>
        <mxCell id="GZ5hargXJhRWxqv7RDIR-6" value="" style="sketch=0;aspect=fixed;pointerEvents=1;shadow=0;dashed=0;html=1;strokeColor=none;labelPosition=center;verticalLabelPosition=bottom;verticalAlign=top;align=center;fillColor=#00188D;shape=mxgraph.azure.queue_generic" vertex="1" parent="1">
          <mxGeometry x="250" y="630" width="100" height="30" as="geometry" />
        </mxCell>
        <mxCell id="GZ5hargXJhRWxqv7RDIR-20" value="" style="edgeStyle=orthogonalEdgeStyle;rounded=0;orthogonalLoop=1;jettySize=auto;html=1;" edge="1" parent="1" source="GZ5hargXJhRWxqv7RDIR-11" target="GZ5hargXJhRWxqv7RDIR-6">
          <mxGeometry relative="1" as="geometry" />
        </mxCell>
        <mxCell id="GZ5hargXJhRWxqv7RDIR-21" style="edgeStyle=orthogonalEdgeStyle;rounded=0;orthogonalLoop=1;jettySize=auto;html=1;exitX=1;exitY=0.5;exitDx=0;exitDy=0;" edge="1" parent="1" source="GZ5hargXJhRWxqv7RDIR-11" target="GZ5hargXJhRWxqv7RDIR-18">
          <mxGeometry relative="1" as="geometry">
            <Array as="points">
              <mxPoint x="410" y="585" />
              <mxPoint x="410" y="780" />
            </Array>
          </mxGeometry>
        </mxCell>
        <mxCell id="GZ5hargXJhRWxqv7RDIR-11" value="Extract metadata" style="whiteSpace=wrap;html=1;verticalAlign=top;fillColor=#2072B8;strokeColor=none;sketch=0;shadow=0;dashed=0;" vertex="1" parent="1">
          <mxGeometry x="250" y="570" width="100" height="30" as="geometry" />
        </mxCell>
        <mxCell id="GZ5hargXJhRWxqv7RDIR-18" value="" style="sketch=0;aspect=fixed;html=1;points=[];align=center;image;fontSize=12;image=img/lib/mscae/dep/SQL_Server_Stretch_DB.svg;" vertex="1" parent="1">
          <mxGeometry x="529" y="730" width="100" height="100" as="geometry" />
        </mxCell>
      </root>
    </mxGraphModel>
  </diagram>
</mxfile>
